M48
; DRILL file {KiCad 8.0.3} date 2024-11-28T01:12:51-0800
; FORMAT={-:-/ absolute / inch / decimal}
; #@! TF.CreationDate,2024-11-28T01:12:51-08:00
; #@! TF.GenerationSoftware,Kicad,Pcbnew,8.0.3
; #@! TF.FileFunction,Plated,1,2,PTH
FMAT,2
INCH
; #@! TA.AperFunction,Plated,PTH,ViaDrill
T1C0.0118
; #@! TA.AperFunction,Plated,PTH,ComponentDrill
T2C0.0197
; #@! TA.AperFunction,Plated,PTH,ComponentDrill
T3C0.0295
; #@! TA.AperFunction,Plated,PTH,ComponentDrill
T4C0.0300
; #@! TA.AperFunction,Plated,PTH,ComponentDrill
T5C0.0315
; #@! TA.AperFunction,Plated,PTH,ComponentDrill
T6C0.0354
; #@! TA.AperFunction,Plated,PTH,ComponentDrill
T7C0.0390
; #@! TA.AperFunction,Plated,PTH,ComponentDrill
T8C0.0394
; #@! TA.AperFunction,Plated,PTH,ComponentDrill
T9C0.0433
; #@! TA.AperFunction,Plated,PTH,ComponentDrill
T10C0.0510
; #@! TA.AperFunction,Plated,PTH,ComponentDrill
T11C0.0512
; #@! TA.AperFunction,Plated,PTH,ComponentDrill
T12C0.0550
; #@! TA.AperFunction,Plated,PTH,ComponentDrill
T13C0.1260
%
G90
G05
T1
X1.2923Y-3.3167
X1.3238Y-3.3185
X1.3484Y-3.3465
X1.7618Y-2.2343
X1.8307Y-2.9921
X2.1063Y-1.939
X2.1339Y-3.0551
X2.2638Y-3.4547
X2.4705Y-3.3913
X2.4803Y-3.5236
X2.7264Y-1.7618
X3.2087Y-2.7657
X3.4449Y-2.6575
X3.4843Y-2.1654
X3.9173Y-3.9173
X4.0276Y-3.9449
X5.1693Y-3.4852
X5.2005Y-3.4891
T2
X1.378Y-5.748
X1.6437Y-3.6713
X1.6732Y-2.6969
X1.9563Y-5.2953
X2.0965Y-3.189
X2.2441Y-3.5728
X2.2835Y-2.8346
X2.372Y-3.5728
X2.5295Y-2.4213
X2.5677Y-5.2953
X2.8445Y-3.9567
X2.8543Y-2.4213
X2.9429Y-3.6319
X2.9429Y-3.7697
X2.9528Y-3.2579
X3.0118Y-2.5295
X3.139Y-5.2957
X3.3169Y-2.8346
X3.3169Y-3.4154
X3.3268Y-1.9488
X3.3465Y-2.9626
X3.4744Y-2.3425
X3.5827Y-2.5394
X3.5827Y-2.6378
X3.5827Y-2.7362
X3.5827Y-2.8346
X3.7598Y-5.7382
X4.1535Y-2.4902
X4.2244Y-3.9449
X4.4291Y-2.3622
X4.4291Y-4.6654
X4.4587Y-5.1969
X4.5768Y-5.4823
X4.6949Y-2.6969
X4.7146Y-2.3425
X4.8346Y-3.3346
X4.9528Y-5.2795
X4.9606Y-5.689
X5.0984Y-3.3268
X5.2461Y-2.2638
X5.2756Y-3.2972
T3
X1.9276Y-3.9228
X1.9776Y-3.9228
X2.0276Y-3.9228
T4
X1.7717Y-3.2087
X1.7717Y-3.4087
X1.8882Y-3.5574
X1.8882Y-3.7574
X1.9685Y-3.2087
X1.9685Y-3.4087
X2.0945Y-3.5576
X2.0945Y-3.7576
X2.2625Y-5.1013
X2.2625Y-5.3013
X2.8531Y-5.0856
X2.8531Y-5.2856
X3.0079Y-2.8329
X3.0079Y-3.0329
X3.0709Y-3.4375
X3.0709Y-3.6375
X3.0709Y-3.7426
X3.0709Y-3.9426
X3.4239Y-5.1013
X3.4239Y-5.3013
X3.563Y-2.9274
X3.563Y-3.1274
X3.563Y-3.2129
X3.563Y-3.4129
X4.1929Y-3.4178
X4.1929Y-3.6178
X4.2752Y-2.9286
X4.2752Y-3.2286
X4.5752Y-2.9286
X4.5752Y-3.2286
T5
X1.811Y-1.9094
X1.811Y-2.3094
X1.8533Y-5.1187
X1.8533Y-5.5187
X1.8575Y-4.6634
X1.8575Y-4.9634
X1.9575Y-4.6634
X1.9575Y-4.9634
X2.0079Y-1.9094
X2.0079Y-2.3094
X2.0575Y-4.6634
X2.0575Y-4.9634
X2.0597Y-5.1189
X2.0597Y-5.5189
X2.1575Y-4.6634
X2.1575Y-4.9634
X2.2047Y-1.9094
X2.2047Y-2.3094
X2.3058Y-4.6705
X2.3058Y-4.9705
X2.3819Y-2.4772
X2.3819Y-2.8772
X2.3819Y-2.9913
X2.3819Y-3.3913
X2.4016Y-1.9094
X2.4016Y-2.3094
X2.448Y-4.6634
X2.448Y-4.9634
X2.4656Y-5.1187
X2.4656Y-5.5187
X2.5394Y-2.5323
X2.5394Y-2.6323
X2.5394Y-2.7323
X2.5394Y-2.8323
X2.5394Y-2.9323
X2.5394Y-3.0323
X2.5394Y-3.1323
X2.5394Y-3.2323
X2.5394Y-3.3323
X2.5394Y-3.4323
X2.5394Y-3.5323
X2.5394Y-3.6323
X2.5394Y-3.7323
X2.5394Y-3.8323
X2.548Y-4.6634
X2.548Y-4.9634
X2.5984Y-1.9094
X2.5984Y-2.3094
X2.648Y-4.6634
X2.648Y-4.9634
X2.67Y-5.1189
X2.67Y-5.5189
X2.748Y-4.6634
X2.748Y-4.9634
X2.7953Y-1.9094
X2.7953Y-2.3094
X2.8394Y-2.5323
X2.8394Y-2.6323
X2.8394Y-2.7323
X2.8394Y-2.8323
X2.8394Y-2.9323
X2.8394Y-3.0323
X2.8394Y-3.1323
X2.8394Y-3.2323
X2.8394Y-3.3323
X2.8394Y-3.4323
X2.8394Y-3.5323
X2.8394Y-3.6323
X2.8394Y-3.7323
X2.8394Y-3.8323
X2.9016Y-4.6705
X2.9016Y-4.9705
X3.0384Y-5.1189
X3.0384Y-5.5189
X3.0386Y-4.6634
X3.0386Y-4.9634
X3.1386Y-4.6634
X3.1386Y-4.9634
X3.2386Y-4.6634
X3.2386Y-4.9634
X3.2402Y-5.1228
X3.2402Y-5.5228
X3.2551Y-3.5307
X3.2551Y-3.6307
X3.2551Y-3.7307
X3.2551Y-3.8307
X3.3386Y-4.6634
X3.3386Y-4.9634
X3.479Y-4.6705
X3.479Y-4.9705
X3.4803Y-4.1063
X3.4803Y-4.5063
X3.5551Y-3.5307
X3.5551Y-3.6307
X3.5551Y-3.7307
X3.5551Y-3.8307
X3.6709Y-3.9961
X3.7192Y-2.5323
X3.7192Y-2.6323
X3.7192Y-2.7323
X3.7192Y-2.8323
X3.7192Y-2.9323
X3.7192Y-3.0323
X3.7192Y-3.1323
X3.7192Y-3.2323
X3.7192Y-3.3323
X3.7192Y-3.4323
X3.7192Y-3.5323
X3.7192Y-3.6323
X3.7192Y-3.7323
X3.7192Y-3.8323
X4.0192Y-2.5323
X4.0192Y-2.6323
X4.0192Y-2.7323
X4.0192Y-2.8323
X4.0192Y-2.9323
X4.0192Y-3.0323
X4.0192Y-3.1323
X4.0192Y-3.2323
X4.0192Y-3.3323
X4.0192Y-3.4323
X4.0192Y-3.5323
X4.0192Y-3.6323
X4.0192Y-3.7323
X4.0192Y-3.8323
X4.0709Y-3.9961
X4.311Y-2.3
X4.311Y-2.7
X4.5472Y-2.3
X4.5472Y-2.7
X4.7283Y-5.0362
X4.7283Y-5.4362
X4.8299Y-2.4654
X4.8299Y-2.5654
X4.8299Y-2.6654
X4.8299Y-2.7654
X4.8299Y-2.8654
X4.8299Y-2.9654
X4.8299Y-3.0654
X4.8299Y-3.1654
X4.8307Y-1.9567
X4.8307Y-2.0567
X4.8307Y-2.1567
X4.8307Y-2.2567
X5.1299Y-2.4654
X5.1299Y-2.5654
X5.1299Y-2.6654
X5.1299Y-2.7654
X5.1299Y-2.8654
X5.1299Y-2.9654
X5.1299Y-3.0654
X5.1299Y-3.1654
X5.1307Y-1.9567
X5.1307Y-2.0567
X5.1307Y-2.1567
X5.1307Y-2.2567
T6
X3.1791Y-2.628
X3.2791Y-2.628
X4.4669Y-2.0276
X4.5669Y-2.0276
T7
X3.7291Y-4.1876
X3.7291Y-4.66
X3.7291Y-4.9356
X3.7291Y-5.4081
T8
X1.8602Y-2.4705
X1.8602Y-2.6476
X1.9082Y-4.2913
X2.105Y-4.2913
X2.1161Y-2.4705
X2.1161Y-2.6476
X2.5Y-4.2913
X2.6969Y-4.2913
X3.0906Y-4.2913
X3.2874Y-4.2913
X4.6247Y-4.7165
X4.8216Y-4.7165
T9
X1.572Y-5.748
X1.672Y-5.748
X1.7291Y-2.815
X1.772Y-5.748
X1.7898Y-3.0687
X1.8898Y-3.0687
X1.9898Y-3.0687
X2.1291Y-2.815
X2.1709Y-5.748
X2.2047Y-2.989
X2.2047Y-3.389
X2.2709Y-5.748
X2.3709Y-5.748
X2.7697Y-5.748
X2.8697Y-5.748
X2.9697Y-5.748
X2.9921Y-1.9094
X2.9921Y-2.3094
X3.189Y-1.9094
X3.189Y-2.3094
X3.3689Y-5.748
X3.4689Y-5.748
X3.5689Y-5.748
X3.6551Y-2.3425
X3.9677Y-5.748
X4.0551Y-2.3425
X4.0677Y-5.748
X4.1677Y-5.748
X4.5665Y-5.748
X4.6665Y-5.748
X4.7665Y-5.748
X5.1476Y-4.5866
X5.1476Y-4.6866
X5.1476Y-4.7866
X5.1498Y-5.1772
X5.1498Y-5.2772
X5.1498Y-5.3772
T10
X3.6503Y-4.4238
X3.6503Y-5.1719
X3.978Y-1.3319
X4.1749Y-1.3319
X4.2093Y-4.66
X4.2093Y-5.4081
T11
X1.1807Y-4.9775
X1.1807Y-5.1743
X1.1807Y-5.3712
X1.1811Y-1.6535
X1.1811Y-1.8504
X1.1811Y-2.0472
X1.1811Y-2.2441
X1.1811Y-2.4409
X1.1811Y-2.6378
X1.1811Y-2.8346
X1.1811Y-3.0315
X1.1811Y-3.3169
X1.1811Y-3.5138
X1.1811Y-3.7106
X1.1811Y-3.9075
X1.1811Y-4.1043
X1.1811Y-4.3012
X1.1811Y-4.498
X1.1811Y-4.6949
X1.7559Y-1.326
X1.9528Y-1.326
X2.1496Y-1.326
X2.3465Y-1.326
X2.5433Y-1.326
X2.7402Y-1.326
X2.937Y-1.326
X3.1339Y-1.326
X4.5029Y-1.3268
X4.6997Y-1.3268
X4.7323Y-3.5354
X4.7323Y-3.7323
X4.7357Y-4.0809
X4.7357Y-4.2778
X4.8966Y-1.3268
X5.0551Y-3.5354
X5.0551Y-3.7323
X5.0586Y-4.0809
X5.0586Y-4.2778
T12
X3.4592Y-2.0472
X4.1892Y-2.0472
T13
X1.1713Y-1.3209
X1.1713Y-5.6693
X5.1673Y-1.3189
X5.1673Y-5.6693
M30
