%TF.GenerationSoftware,KiCad,Pcbnew,8.0.3*%
%TF.CreationDate,2024-11-28T01:10:20-08:00*%
%TF.ProjectId,SuperCapacitorBike,53757065-7243-4617-9061-6369746f7242,rev?*%
%TF.SameCoordinates,Original*%
%TF.FileFunction,Soldermask,Bot*%
%TF.FilePolarity,Negative*%
%FSLAX46Y46*%
G04 Gerber Fmt 4.6, Leading zero omitted, Abs format (unit mm)*
G04 Created by KiCad (PCBNEW 8.0.3) date 2024-11-28 01:10:20*
%MOMM*%
%LPD*%
G01*
G04 APERTURE LIST*
G04 Aperture macros list*
%AMRoundRect*
0 Rectangle with rounded corners*
0 $1 Rounding radius*
0 $2 $3 $4 $5 $6 $7 $8 $9 X,Y pos of 4 corners*
0 Add a 4 corners polygon primitive as box body*
4,1,4,$2,$3,$4,$5,$6,$7,$8,$9,$2,$3,0*
0 Add four circle primitives for the rounded corners*
1,1,$1+$1,$2,$3*
1,1,$1+$1,$4,$5*
1,1,$1+$1,$6,$7*
1,1,$1+$1,$8,$9*
0 Add four rect primitives between the rounded corners*
20,1,$1+$1,$2,$3,$4,$5,0*
20,1,$1+$1,$4,$5,$6,$7,0*
20,1,$1+$1,$6,$7,$8,$9,0*
20,1,$1+$1,$8,$9,$2,$3,0*%
G04 Aperture macros list end*
%ADD10R,1.000000X1.000000*%
%ADD11R,1.600000X1.600000*%
%ADD12O,1.600000X1.600000*%
%ADD13R,1.905000X2.000000*%
%ADD14O,1.905000X2.000000*%
%ADD15R,2.200000X2.200000*%
%ADD16O,2.200000X2.200000*%
%ADD17C,1.600000*%
%ADD18R,2.000000X1.905000*%
%ADD19O,2.000000X1.905000*%
%ADD20R,0.850000X0.850000*%
%ADD21RoundRect,0.102000X-0.975000X0.975000X-0.975000X-0.975000X0.975000X-0.975000X0.975000X0.975000X0*%
%ADD22C,2.154000*%
%ADD23R,1.270000X1.270000*%
%ADD24C,1.270000*%
%ADD25R,1.800000X1.800000*%
%ADD26C,1.800000*%
%ADD27R,1.803400X1.803400*%
%ADD28C,1.498600*%
%ADD29C,1.803400*%
%ADD30R,2.000000X2.000000*%
%ADD31C,2.000000*%
%ADD32R,1.905000X1.905000*%
%ADD33C,1.905000*%
%ADD34RoundRect,0.102000X0.975000X0.975000X-0.975000X0.975000X-0.975000X-0.975000X0.975000X-0.975000X0*%
%ADD35C,5.600000*%
%ADD36R,1.050000X1.500000*%
%ADD37O,1.050000X1.500000*%
%ADD38RoundRect,0.102000X0.754000X0.754000X-0.754000X0.754000X-0.754000X-0.754000X0.754000X-0.754000X0*%
%ADD39C,1.712000*%
%ADD40C,0.990600*%
G04 APERTURE END LIST*
D10*
%TO.C,TP6*%
X57000000Y-90750000D03*
%TD*%
D11*
%TO.C,U3*%
X84800000Y-118450000D03*
D12*
X82260000Y-118450000D03*
X79720000Y-118450000D03*
X77180000Y-118450000D03*
X77180000Y-126070000D03*
X79720000Y-126070000D03*
X82260000Y-126070000D03*
X84800000Y-126070000D03*
%TD*%
D10*
%TO.C,TP28*%
X119250000Y-68500000D03*
%TD*%
%TO.C,TP23*%
X79730000Y-134510000D03*
%TD*%
D13*
%TO.C,Q4*%
X70350000Y-146000000D03*
D14*
X72890000Y-146000000D03*
X75430000Y-146000000D03*
%TD*%
D10*
%TO.C,TP1*%
X133250000Y-57500000D03*
%TD*%
D15*
%TO.C,D8*%
X81000000Y-48500000D03*
D16*
X81000000Y-58660000D03*
%TD*%
D17*
%TO.C,R1*%
X60500000Y-86140000D03*
D12*
X60500000Y-75980000D03*
%TD*%
D17*
%TO.C,R12*%
X77175000Y-130020000D03*
D12*
X77175000Y-140180000D03*
%TD*%
D18*
%TO.C,Q7*%
X130750000Y-116500000D03*
D19*
X130750000Y-119040000D03*
X130750000Y-121580000D03*
%TD*%
D10*
%TO.C,TP15*%
X125800000Y-134100000D03*
%TD*%
D20*
%TO.C,J4*%
X91000000Y-72000000D03*
%TD*%
D17*
%TO.C,R22*%
X46000000Y-48500000D03*
D12*
X46000000Y-58660000D03*
%TD*%
D17*
%TO.C,R6*%
X66000000Y-48500000D03*
D12*
X66000000Y-58660000D03*
%TD*%
D21*
%TO.C,J10*%
X30000000Y-42000000D03*
D22*
X30000000Y-47000000D03*
X30000000Y-52000000D03*
X30000000Y-57000000D03*
X30000000Y-62000000D03*
X30000000Y-67000000D03*
X30000000Y-72000000D03*
X30000000Y-77000000D03*
%TD*%
D23*
%TO.C,C10*%
X106500000Y-86813250D03*
D24*
X106500000Y-91893250D03*
%TD*%
D10*
%TO.C,TP9*%
X42500000Y-68500000D03*
%TD*%
D23*
%TO.C,C9*%
X90500000Y-86686750D03*
D24*
X90500000Y-81606750D03*
%TD*%
%TO.C,XTAL2*%
X108590000Y-74385999D03*
X108590000Y-82005999D03*
X116210000Y-82005999D03*
X116210000Y-74385999D03*
%TD*%
D18*
%TO.C,Q8*%
X130805000Y-131500000D03*
D19*
X130805000Y-134040000D03*
X130805000Y-136580000D03*
%TD*%
D10*
%TO.C,TP21*%
X65220000Y-134500000D03*
%TD*%
D25*
%TO.C,D7*%
X113460000Y-51500000D03*
D26*
X116000000Y-51500000D03*
%TD*%
D21*
%TO.C,J13*%
X30000000Y-84250000D03*
D22*
X30000000Y-89250000D03*
X30000000Y-94250000D03*
X30000000Y-99250000D03*
X30000000Y-104250000D03*
X30000000Y-109250000D03*
X30000000Y-114250000D03*
X30000000Y-119250000D03*
%TD*%
D10*
%TO.C,TP14*%
X122800000Y-84700000D03*
%TD*%
D27*
%TO.C,K2*%
X92717950Y-131365000D03*
D28*
X94717951Y-137364999D03*
D29*
X106917149Y-137364999D03*
D28*
X94717951Y-125365001D03*
%TD*%
D10*
%TO.C,TP34*%
X95500000Y-145750000D03*
%TD*%
D23*
%TO.C,C16*%
X53200000Y-90363250D03*
D24*
X53200000Y-95443250D03*
%TD*%
D30*
%TO.C,C3*%
X53467677Y-109000000D03*
D31*
X48467677Y-109000000D03*
%TD*%
D23*
%TO.C,C12*%
X78000000Y-87313250D03*
D24*
X78000000Y-92393250D03*
%TD*%
D15*
%TO.C,D5*%
X103000000Y-59500000D03*
D16*
X92840000Y-59500000D03*
%TD*%
D23*
%TO.C,C4*%
X57467500Y-129573250D03*
D24*
X57467500Y-134653250D03*
%TD*%
D32*
%TO.C,F2*%
X87864000Y-52000000D03*
D33*
X106406000Y-52000000D03*
%TD*%
D11*
%TO.C,U9*%
X122700000Y-49700000D03*
D12*
X122700000Y-52240000D03*
X122700000Y-54780000D03*
X122700000Y-57320000D03*
X130320000Y-57320000D03*
X130320000Y-54780000D03*
X130320000Y-52240000D03*
X130320000Y-49700000D03*
%TD*%
D30*
%TO.C,C5*%
X83500000Y-109000000D03*
D31*
X78500000Y-109000000D03*
%TD*%
D10*
%TO.C,TP17*%
X72500000Y-61500000D03*
%TD*%
D17*
%TO.C,R5*%
X61000000Y-48500000D03*
D12*
X61000000Y-58660000D03*
%TD*%
D34*
%TO.C,J9*%
X79600000Y-33680000D03*
D22*
X74600000Y-33680000D03*
X69600000Y-33680000D03*
X64600000Y-33680000D03*
X59600000Y-33680000D03*
X54600000Y-33680000D03*
X49600000Y-33680000D03*
X44600000Y-33680000D03*
%TD*%
D10*
%TO.C,TP13*%
X84250000Y-72000000D03*
%TD*%
%TO.C,TP4*%
X74750000Y-92250000D03*
%TD*%
%TO.C,TP26*%
X119750000Y-59500000D03*
%TD*%
D13*
%TO.C,Q2*%
X115990000Y-146000000D03*
D14*
X118530000Y-146000000D03*
X121070000Y-146000000D03*
%TD*%
D10*
%TO.C,TP29*%
X116250000Y-139250000D03*
%TD*%
D15*
%TO.C,D4*%
X56000000Y-75920000D03*
D16*
X56000000Y-86080000D03*
%TD*%
D25*
%TO.C,D10*%
X80750000Y-66750000D03*
D26*
X83290000Y-66750000D03*
%TD*%
D10*
%TO.C,TP31*%
X107300000Y-100200000D03*
%TD*%
%TO.C,TP18*%
X84500000Y-49500000D03*
%TD*%
D13*
%TO.C,Q6*%
X100780000Y-146000000D03*
D14*
X103320000Y-146000000D03*
X105860000Y-146000000D03*
%TD*%
D10*
%TO.C,TP19*%
X58000000Y-72000000D03*
%TD*%
D20*
%TO.C,J3*%
X91000000Y-69500000D03*
%TD*%
D23*
%TO.C,C14*%
X50000000Y-86580000D03*
D24*
X50000000Y-81500000D03*
%TD*%
D10*
%TO.C,TP12*%
X85000000Y-75250000D03*
%TD*%
D20*
%TO.C,J2*%
X91000000Y-64500000D03*
%TD*%
D10*
%TO.C,TP35*%
X35000000Y-146000000D03*
%TD*%
D17*
%TO.C,R18*%
X109500000Y-68580000D03*
D12*
X109500000Y-58420000D03*
%TD*%
D20*
%TO.C,J12*%
X88250000Y-59500000D03*
%TD*%
D17*
%TO.C,R10*%
X62625000Y-140175000D03*
D12*
X62625000Y-130015000D03*
%TD*%
D11*
%TO.C,U8*%
X130300000Y-80400000D03*
D12*
X130300000Y-77860000D03*
X130300000Y-75320000D03*
X130300000Y-72780000D03*
X130300000Y-70240000D03*
X130300000Y-67700000D03*
X130300000Y-65160000D03*
X130300000Y-62620000D03*
X122680000Y-62620000D03*
X122680000Y-65160000D03*
X122680000Y-67700000D03*
X122680000Y-70240000D03*
X122680000Y-72780000D03*
X122680000Y-75320000D03*
X122680000Y-77860000D03*
X122680000Y-80400000D03*
%TD*%
D22*
%TO.C,J7*%
X120200000Y-94800000D03*
X128400000Y-94800000D03*
X120200000Y-89800000D03*
X128400000Y-89800000D03*
%TD*%
D35*
%TO.C,H3*%
X29750000Y-144000000D03*
%TD*%
D11*
%TO.C,U5*%
X72120000Y-97340000D03*
D12*
X72120000Y-94800000D03*
X72120000Y-92260000D03*
X72120000Y-89720000D03*
X72120000Y-87180000D03*
X72120000Y-84640000D03*
X72120000Y-82100000D03*
X72120000Y-79560000D03*
X72120000Y-77020000D03*
X72120000Y-74480000D03*
X72120000Y-71940000D03*
X72120000Y-69400000D03*
X72120000Y-66860000D03*
X72120000Y-64320000D03*
X64500000Y-64320000D03*
X64500000Y-66860000D03*
X64500000Y-69400000D03*
X64500000Y-71940000D03*
X64500000Y-74480000D03*
X64500000Y-77020000D03*
X64500000Y-79560000D03*
X64500000Y-82100000D03*
X64500000Y-84640000D03*
X64500000Y-87180000D03*
X64500000Y-89720000D03*
X64500000Y-92260000D03*
X64500000Y-94800000D03*
X64500000Y-97340000D03*
%TD*%
D17*
%TO.C,R7*%
X82300000Y-130120000D03*
D12*
X82300000Y-140280000D03*
%TD*%
D11*
%TO.C,D2*%
X58567500Y-126250000D03*
D12*
X58567500Y-118630000D03*
%TD*%
D10*
%TO.C,TP16*%
X105500000Y-63250000D03*
%TD*%
D36*
%TO.C,U10*%
X51500000Y-99640000D03*
D37*
X50230000Y-99640000D03*
X48960000Y-99640000D03*
%TD*%
D38*
%TO.C,S1*%
X53750000Y-67250000D03*
D39*
X47250000Y-67250000D03*
X53750000Y-62750000D03*
X47250000Y-62750000D03*
%TD*%
D23*
%TO.C,C13*%
X76400000Y-77036750D03*
D24*
X76400000Y-71956750D03*
%TD*%
D30*
%TO.C,C2*%
X68500000Y-109000000D03*
D31*
X63500000Y-109000000D03*
%TD*%
D17*
%TO.C,R11*%
X47075000Y-140175000D03*
D12*
X47075000Y-130015000D03*
%TD*%
D34*
%TO.C,J14*%
X124372500Y-33700000D03*
D22*
X119372500Y-33700000D03*
X114372500Y-33700000D03*
%TD*%
D11*
%TO.C,U6*%
X94467500Y-64320000D03*
D12*
X94467500Y-66860000D03*
X94467500Y-69400000D03*
X94467500Y-71940000D03*
X94467500Y-74480000D03*
X94467500Y-77020000D03*
X94467500Y-79560000D03*
X94467500Y-82100000D03*
X94467500Y-84640000D03*
X94467500Y-87180000D03*
X94467500Y-89720000D03*
X94467500Y-92260000D03*
X94467500Y-94800000D03*
X94467500Y-97340000D03*
X102087500Y-97340000D03*
X102087500Y-94800000D03*
X102087500Y-92260000D03*
X102087500Y-89720000D03*
X102087500Y-87180000D03*
X102087500Y-84640000D03*
X102087500Y-82100000D03*
X102087500Y-79560000D03*
X102087500Y-77020000D03*
X102087500Y-74480000D03*
X102087500Y-71940000D03*
X102087500Y-69400000D03*
X102087500Y-66860000D03*
X102087500Y-64320000D03*
%TD*%
D10*
%TO.C,TP11*%
X60250000Y-90750000D03*
%TD*%
D15*
%TO.C,D9*%
X76000000Y-48500000D03*
D16*
X76000000Y-58660000D03*
%TD*%
D40*
%TO.C,J11*%
X85777250Y-39996960D03*
X85777250Y-42003560D03*
X89218950Y-44000000D03*
X89472950Y-38000520D03*
X91479550Y-38000520D03*
X91733550Y-44000000D03*
%TD*%
D10*
%TO.C,TP20*%
X76500000Y-64250000D03*
%TD*%
%TO.C,TP5*%
X75000000Y-82750000D03*
%TD*%
D11*
%TO.C,D1*%
X73700000Y-126250000D03*
D12*
X73700000Y-118630000D03*
%TD*%
D11*
%TO.C,U2*%
X54800000Y-118450000D03*
D12*
X52260000Y-118450000D03*
X49720000Y-118450000D03*
X47180000Y-118450000D03*
X47180000Y-126070000D03*
X49720000Y-126070000D03*
X52260000Y-126070000D03*
X54800000Y-126070000D03*
%TD*%
D13*
%TO.C,Q1*%
X55142000Y-146000000D03*
D14*
X57682000Y-146000000D03*
X60222000Y-146000000D03*
%TD*%
D23*
%TO.C,C15*%
X47960000Y-95436750D03*
D24*
X47960000Y-90356750D03*
%TD*%
D35*
%TO.C,H1*%
X29750000Y-33550000D03*
%TD*%
D13*
%TO.C,Q3*%
X85570000Y-146000000D03*
D14*
X88110000Y-146000000D03*
X90650000Y-146000000D03*
%TD*%
D23*
%TO.C,C8*%
X45000000Y-81500000D03*
D24*
X45000000Y-86580000D03*
%TD*%
D17*
%TO.C,R8*%
X52317500Y-140180000D03*
D12*
X52317500Y-130020000D03*
%TD*%
D10*
%TO.C,TP25*%
X134000000Y-83750000D03*
%TD*%
D17*
%TO.C,R3*%
X71000000Y-48500000D03*
D12*
X71000000Y-58660000D03*
%TD*%
D20*
%TO.C,J5*%
X91000000Y-67000000D03*
%TD*%
D17*
%TO.C,R17*%
X115500000Y-68580000D03*
D12*
X115500000Y-58420000D03*
%TD*%
D17*
%TO.C,R20*%
X56000000Y-48500000D03*
D12*
X56000000Y-58660000D03*
%TD*%
D10*
%TO.C,TP8*%
X64250000Y-61500000D03*
%TD*%
D23*
%TO.C,C11*%
X78000000Y-95063250D03*
D24*
X78000000Y-100143250D03*
%TD*%
D10*
%TO.C,TP10*%
X53250000Y-81000000D03*
%TD*%
D27*
%TO.C,K1*%
X92717950Y-112365000D03*
D28*
X94717951Y-118364999D03*
D29*
X106917149Y-118364999D03*
D28*
X94717951Y-106365001D03*
%TD*%
D11*
%TO.C,U4*%
X90300000Y-97300000D03*
D12*
X90300000Y-94760000D03*
X90300000Y-92220000D03*
X90300000Y-89680000D03*
X82680000Y-89680000D03*
X82680000Y-92220000D03*
X82680000Y-94760000D03*
X82680000Y-97300000D03*
%TD*%
D11*
%TO.C,D3*%
X88367500Y-126250000D03*
D12*
X88367500Y-118630000D03*
%TD*%
D21*
%TO.C,J6*%
X29990000Y-126427500D03*
D22*
X29990000Y-131427500D03*
X29990000Y-136427500D03*
%TD*%
D17*
%TO.C,R16*%
X103400000Y-101500000D03*
D12*
X93240000Y-101500000D03*
%TD*%
D10*
%TO.C,TP30*%
X112500000Y-118500000D03*
%TD*%
D17*
%TO.C,R4*%
X120100000Y-127920000D03*
D12*
X120100000Y-138080000D03*
%TD*%
D10*
%TO.C,TP36*%
X126000000Y-144500000D03*
%TD*%
D17*
%TO.C,R13*%
X60500000Y-73080000D03*
D12*
X60500000Y-62920000D03*
%TD*%
D10*
%TO.C,TP2*%
X72250000Y-100500000D03*
%TD*%
D17*
%TO.C,R9*%
X67817500Y-140180000D03*
D12*
X67817500Y-130020000D03*
%TD*%
D13*
%TO.C,Q5*%
X39930000Y-146000000D03*
D14*
X42470000Y-146000000D03*
X45010000Y-146000000D03*
%TD*%
D11*
%TO.C,U1*%
X69800000Y-118450000D03*
D12*
X67260000Y-118450000D03*
X64720000Y-118450000D03*
X62180000Y-118450000D03*
X62180000Y-126070000D03*
X64720000Y-126070000D03*
X67260000Y-126070000D03*
X69800000Y-126070000D03*
%TD*%
D35*
%TO.C,H4*%
X131250000Y-144000000D03*
%TD*%
D10*
%TO.C,TP22*%
X49690000Y-134500000D03*
%TD*%
D29*
%TO.C,J1*%
X106041784Y-33830000D03*
X101041784Y-33830000D03*
%TD*%
D35*
%TO.C,H2*%
X131250000Y-33500000D03*
%TD*%
D10*
%TO.C,TP33*%
X113250000Y-132000000D03*
%TD*%
D23*
%TO.C,C6*%
X86967500Y-129573250D03*
D24*
X86967500Y-134653250D03*
%TD*%
D10*
%TO.C,TP24*%
X129500000Y-84500000D03*
%TD*%
D23*
%TO.C,C17*%
X90500000Y-79436750D03*
D24*
X90500000Y-74356750D03*
%TD*%
D10*
%TO.C,TP27*%
X112500000Y-60000000D03*
%TD*%
D30*
%TO.C,C7*%
X122467677Y-119800000D03*
D31*
X117467677Y-119800000D03*
%TD*%
D10*
%TO.C,TP7*%
X41750000Y-93250000D03*
%TD*%
%TO.C,TP32*%
X84250000Y-86750000D03*
%TD*%
D15*
%TO.C,D6*%
X43920000Y-71500000D03*
D16*
X54080000Y-71500000D03*
%TD*%
D17*
%TO.C,R21*%
X51000000Y-48500000D03*
D12*
X51000000Y-58660000D03*
%TD*%
D23*
%TO.C,C1*%
X72467500Y-129173250D03*
D24*
X72467500Y-134253250D03*
%TD*%
D22*
%TO.C,J8*%
X120287500Y-108655000D03*
X128487500Y-108655000D03*
X120287500Y-103655000D03*
X128487500Y-103655000D03*
%TD*%
D10*
%TO.C,TP3*%
X74750000Y-95750000D03*
%TD*%
D13*
%TO.C,U7*%
X45460000Y-77945000D03*
D14*
X48000000Y-77945000D03*
X50540000Y-77945000D03*
%TD*%
D17*
%TO.C,R2*%
X88400000Y-104300000D03*
D12*
X88400000Y-114460000D03*
%TD*%
M02*
